<svg xmlns="http://www.w3.org/2000/svg" xmlns:xlink="http://www.w3.org/1999/xlink" width="270" zoomAndPan="magnify" viewBox="0 0 202.5 44.999999" height="60" preserveAspectRatio="xMidYMid meet" version="1.0"><defs><g/><clipPath id="6ce3853e4a"><path d="M 2.246094 0.925781 L 41.898438 0.925781 L 41.898438 44.320312 L 2.246094 44.320312 Z M 2.246094 0.925781 " clip-rule="nonzero"/></clipPath><clipPath id="5edf3d76cd"><path d="M 21 17 L 41.898438 17 L 41.898438 28 L 21 28 Z M 21 17 " clip-rule="nonzero"/></clipPath><clipPath id="6fe8e69349"><path d="M 35 17 L 41.898438 17 L 41.898438 39 L 35 39 Z M 35 17 " clip-rule="nonzero"/></clipPath></defs><g clip-path="url(#6ce3853e4a)"><path fill="#e8f0f9" d="M 12.023438 22.496094 C 12.023438 14.566406 17.5625 9.152344 25.667969 9.152344 C 28.730469 9.152344 31.425781 9.933594 33.832031 11.585938 L 41.878906 7.292969 C 37.835938 3.125 32.0625 0.925781 25.195312 0.925781 C 11.90625 0.925781 2.253906 9.925781 2.253906 22.496094 C 2.253906 35.066406 11.90625 44.0625 25.195312 44.0625 C 30.230469 44.0625 34.675781 42.878906 38.277344 40.613281 L 33.824219 33.40625 C 31.417969 35.054688 28.730469 35.835938 25.660156 35.835938 C 17.5625 35.835938 12.023438 30.421875 12.023438 22.496094 Z M 12.023438 22.496094 " fill-opacity="1" fill-rule="evenodd"/></g><g clip-path="url(#5edf3d76cd)"><path fill="#00d9d2" d="M 35.160156 27.890625 L 41.878906 17.132812 L 21.621094 27.945312 L 33.058594 27.898438 Z M 35.160156 27.890625 " fill-opacity="1" fill-rule="evenodd"/></g><g clip-path="url(#6fe8e69349)"><path fill="#008c87" d="M 41.878906 17.132812 L 35.160156 27.890625 L 41.878906 38.765625 Z M 41.878906 17.132812 " fill-opacity="1" fill-rule="evenodd"/></g><g fill="#e8f0f9" fill-opacity="1"><g transform="translate(55.110322, 23.753822)"><g><path d="M 7.546875 0.28125 C 6.566406 0.28125 5.65625 0.109375 4.8125 -0.234375 C 3.96875 -0.578125 3.238281 -1.050781 2.625 -1.65625 C 2.019531 -2.269531 1.546875 -3 1.203125 -3.84375 C 0.859375 -4.6875 0.6875 -5.601562 0.6875 -6.59375 C 0.6875 -7.570312 0.859375 -8.484375 1.203125 -9.328125 C 1.554688 -10.171875 2.035156 -10.898438 2.640625 -11.515625 C 3.253906 -12.128906 3.976562 -12.609375 4.8125 -12.953125 C 5.65625 -13.304688 6.5625 -13.484375 7.53125 -13.484375 C 8.5625 -13.484375 9.515625 -13.285156 10.390625 -12.890625 C 11.273438 -12.492188 12.035156 -11.929688 12.671875 -11.203125 L 10.671875 -9.25 C 10.285156 -9.695312 9.832031 -10.046875 9.3125 -10.296875 C 8.789062 -10.554688 8.222656 -10.6875 7.609375 -10.6875 C 7.046875 -10.6875 6.523438 -10.582031 6.046875 -10.375 C 5.578125 -10.175781 5.164062 -9.894531 4.8125 -9.53125 C 4.46875 -9.164062 4.203125 -8.734375 4.015625 -8.234375 C 3.828125 -7.742188 3.734375 -7.207031 3.734375 -6.625 C 3.734375 -6.03125 3.828125 -5.484375 4.015625 -4.984375 C 4.210938 -4.484375 4.484375 -4.050781 4.828125 -3.6875 C 5.179688 -3.320312 5.601562 -3.035156 6.09375 -2.828125 C 6.582031 -2.628906 7.113281 -2.53125 7.6875 -2.53125 C 8.320312 -2.53125 8.898438 -2.660156 9.421875 -2.921875 C 9.953125 -3.179688 10.398438 -3.535156 10.765625 -3.984375 L 12.78125 -2.078125 C 12.144531 -1.328125 11.382812 -0.742188 10.5 -0.328125 C 9.613281 0.078125 8.628906 0.28125 7.546875 0.28125 Z M 7.546875 0.28125 "/></g></g></g><g fill="#e8f0f9" fill-opacity="1"><g transform="translate(70.212183, 23.753822)"><g><path d="M 7.515625 0.28125 C 6.535156 0.28125 5.628906 0.101562 4.796875 -0.25 C 3.972656 -0.601562 3.253906 -1.085938 2.640625 -1.703125 C 2.035156 -2.328125 1.554688 -3.054688 1.203125 -3.890625 C 0.859375 -4.722656 0.6875 -5.628906 0.6875 -6.609375 C 0.6875 -7.578125 0.859375 -8.484375 1.203125 -9.328125 C 1.554688 -10.171875 2.035156 -10.898438 2.640625 -11.515625 C 3.253906 -12.128906 3.972656 -12.609375 4.796875 -12.953125 C 5.628906 -13.304688 6.535156 -13.484375 7.515625 -13.484375 C 8.472656 -13.484375 9.367188 -13.304688 10.203125 -12.953125 C 11.035156 -12.609375 11.757812 -12.128906 12.375 -11.515625 C 12.988281 -10.898438 13.46875 -10.171875 13.8125 -9.328125 C 14.15625 -8.484375 14.328125 -7.578125 14.328125 -6.609375 C 14.328125 -5.628906 14.15625 -4.722656 13.8125 -3.890625 C 13.46875 -3.054688 12.988281 -2.328125 12.375 -1.703125 C 11.757812 -1.085938 11.035156 -0.601562 10.203125 -0.25 C 9.367188 0.101562 8.472656 0.28125 7.515625 0.28125 Z M 7.515625 -2.53125 C 8.066406 -2.53125 8.570312 -2.628906 9.03125 -2.828125 C 9.488281 -3.035156 9.882812 -3.320312 10.21875 -3.6875 C 10.5625 -4.050781 10.828125 -4.484375 11.015625 -4.984375 C 11.203125 -5.484375 11.296875 -6.023438 11.296875 -6.609375 C 11.296875 -7.179688 11.203125 -7.71875 11.015625 -8.21875 C 10.828125 -8.71875 10.5625 -9.148438 10.21875 -9.515625 C 9.882812 -9.878906 9.488281 -10.164062 9.03125 -10.375 C 8.570312 -10.582031 8.066406 -10.6875 7.515625 -10.6875 C 6.960938 -10.6875 6.453125 -10.582031 5.984375 -10.375 C 5.523438 -10.164062 5.128906 -9.878906 4.796875 -9.515625 C 4.460938 -9.148438 4.203125 -8.71875 4.015625 -8.21875 C 3.828125 -7.71875 3.734375 -7.179688 3.734375 -6.609375 C 3.734375 -6.023438 3.828125 -5.484375 4.015625 -4.984375 C 4.203125 -4.484375 4.460938 -4.050781 4.796875 -3.6875 C 5.128906 -3.332031 5.523438 -3.050781 5.984375 -2.84375 C 6.453125 -2.632812 6.960938 -2.53125 7.515625 -2.53125 Z M 7.515625 -2.53125 "/></g></g></g><g fill="#e8f0f9" fill-opacity="1"><g transform="translate(87.16722, 23.753822)"><g><path d="M 1.484375 -13.21875 L 6.703125 -13.21875 C 7.691406 -13.21875 8.601562 -13.046875 9.4375 -12.703125 C 10.269531 -12.367188 10.988281 -11.910156 11.59375 -11.328125 C 12.207031 -10.742188 12.6875 -10.046875 13.03125 -9.234375 C 13.382812 -8.429688 13.5625 -7.554688 13.5625 -6.609375 C 13.5625 -5.660156 13.382812 -4.785156 13.03125 -3.984375 C 12.6875 -3.179688 12.207031 -2.484375 11.59375 -1.890625 C 10.988281 -1.296875 10.269531 -0.832031 9.4375 -0.5 C 8.601562 -0.164062 7.691406 0 6.703125 0 L 1.484375 0 Z M 6.71875 -2.703125 C 7.269531 -2.703125 7.773438 -2.800781 8.234375 -3 C 8.703125 -3.195312 9.101562 -3.46875 9.4375 -3.8125 C 9.78125 -4.164062 10.046875 -4.578125 10.234375 -5.046875 C 10.429688 -5.523438 10.53125 -6.046875 10.53125 -6.609375 C 10.53125 -7.171875 10.429688 -7.6875 10.234375 -8.15625 C 10.046875 -8.632812 9.78125 -9.046875 9.4375 -9.390625 C 9.101562 -9.742188 8.703125 -10.019531 8.234375 -10.21875 C 7.773438 -10.414062 7.269531 -10.515625 6.71875 -10.515625 L 4.359375 -10.515625 L 4.359375 -2.703125 Z M 6.71875 -2.703125 "/></g></g></g><g fill="#e8f0f9" fill-opacity="1"><g transform="translate(103.353389, 23.753822)"><g><path d="M 1.484375 -13.21875 L 9.03125 -13.21875 L 9.03125 -10.515625 L 4.359375 -10.515625 L 4.359375 -8.078125 L 7.765625 -8.078125 L 7.765625 -5.390625 L 4.359375 -5.390625 L 4.359375 -2.703125 L 9.125 -2.703125 L 9.125 0 L 1.484375 0 Z M 1.484375 -13.21875 "/></g></g></g><g fill="#e8f0f9" fill-opacity="1"><g transform="translate(115.399492, 23.753822)"><g/></g></g><g fill="#e8f0f9" fill-opacity="1"><g transform="translate(121.66921, 23.753822)"><g><path d="M 5.40625 -13.453125 L 7.234375 -13.453125 L 12.4375 0 L 9.40625 0 L 8.59375 -2.234375 L 4.046875 -2.234375 L 3.25 0 L 0.203125 0 Z M 7.703125 -4.71875 L 6.328125 -8.59375 L 4.921875 -4.71875 Z M 7.703125 -4.71875 "/></g></g></g><g fill="#e8f0f9" fill-opacity="1"><g transform="translate(136.238783, 23.753822)"><g><path d="M 1.484375 -13.21875 L 5.625 -13.21875 C 6.300781 -13.21875 6.929688 -13.109375 7.515625 -12.890625 C 8.109375 -12.679688 8.613281 -12.382812 9.03125 -12 C 9.445312 -11.625 9.773438 -11.171875 10.015625 -10.640625 C 10.253906 -10.117188 10.375 -9.550781 10.375 -8.9375 C 10.375 -8.144531 10.179688 -7.429688 9.796875 -6.796875 C 9.421875 -6.160156 8.894531 -5.660156 8.21875 -5.296875 L 11.3125 0 L 7.96875 0 L 5.40625 -4.640625 L 4.359375 -4.640625 L 4.359375 0 L 1.484375 0 Z M 5.484375 -7.171875 C 6.097656 -7.171875 6.585938 -7.328125 6.953125 -7.640625 C 7.316406 -7.953125 7.5 -8.375 7.5 -8.90625 C 7.5 -9.445312 7.3125 -9.847656 6.9375 -10.109375 C 6.570312 -10.378906 6.085938 -10.515625 5.484375 -10.515625 L 4.359375 -10.515625 L 4.359375 -7.171875 Z M 5.484375 -7.171875 "/></g></g></g><g fill="#e8f0f9" fill-opacity="1"><g transform="translate(149.783195, 23.753822)"><g><path d="M 1.484375 -13.21875 L 5.625 -13.21875 C 6.300781 -13.21875 6.929688 -13.109375 7.515625 -12.890625 C 8.109375 -12.679688 8.613281 -12.382812 9.03125 -12 C 9.445312 -11.625 9.773438 -11.171875 10.015625 -10.640625 C 10.253906 -10.117188 10.375 -9.550781 10.375 -8.9375 C 10.375 -8.144531 10.179688 -7.429688 9.796875 -6.796875 C 9.421875 -6.160156 8.894531 -5.660156 8.21875 -5.296875 L 11.3125 0 L 7.96875 0 L 5.40625 -4.640625 L 4.359375 -4.640625 L 4.359375 0 L 1.484375 0 Z M 5.484375 -7.171875 C 6.097656 -7.171875 6.585938 -7.328125 6.953125 -7.640625 C 7.316406 -7.953125 7.5 -8.375 7.5 -8.90625 C 7.5 -9.445312 7.3125 -9.847656 6.9375 -10.109375 C 6.570312 -10.378906 6.085938 -10.515625 5.484375 -10.515625 L 4.359375 -10.515625 L 4.359375 -7.171875 Z M 5.484375 -7.171875 "/></g></g></g><g fill="#e8f0f9" fill-opacity="1"><g transform="translate(163.327607, 23.753822)"><g><path d="M 7.515625 0.28125 C 6.535156 0.28125 5.628906 0.101562 4.796875 -0.25 C 3.972656 -0.601562 3.253906 -1.085938 2.640625 -1.703125 C 2.035156 -2.328125 1.554688 -3.054688 1.203125 -3.890625 C 0.859375 -4.722656 0.6875 -5.628906 0.6875 -6.609375 C 0.6875 -7.578125 0.859375 -8.484375 1.203125 -9.328125 C 1.554688 -10.171875 2.035156 -10.898438 2.640625 -11.515625 C 3.253906 -12.128906 3.972656 -12.609375 4.796875 -12.953125 C 5.628906 -13.304688 6.535156 -13.484375 7.515625 -13.484375 C 8.472656 -13.484375 9.367188 -13.304688 10.203125 -12.953125 C 11.035156 -12.609375 11.757812 -12.128906 12.375 -11.515625 C 12.988281 -10.898438 13.46875 -10.171875 13.8125 -9.328125 C 14.15625 -8.484375 14.328125 -7.578125 14.328125 -6.609375 C 14.328125 -5.628906 14.15625 -4.722656 13.8125 -3.890625 C 13.46875 -3.054688 12.988281 -2.328125 12.375 -1.703125 C 11.757812 -1.085938 11.035156 -0.601562 10.203125 -0.25 C 9.367188 0.101562 8.472656 0.28125 7.515625 0.28125 Z M 7.515625 -2.53125 C 8.066406 -2.53125 8.570312 -2.628906 9.03125 -2.828125 C 9.488281 -3.035156 9.882812 -3.320312 10.21875 -3.6875 C 10.5625 -4.050781 10.828125 -4.484375 11.015625 -4.984375 C 11.203125 -5.484375 11.296875 -6.023438 11.296875 -6.609375 C 11.296875 -7.179688 11.203125 -7.71875 11.015625 -8.21875 C 10.828125 -8.71875 10.5625 -9.148438 10.21875 -9.515625 C 9.882812 -9.878906 9.488281 -10.164062 9.03125 -10.375 C 8.570312 -10.582031 8.066406 -10.6875 7.515625 -10.6875 C 6.960938 -10.6875 6.453125 -10.582031 5.984375 -10.375 C 5.523438 -10.164062 5.128906 -9.878906 4.796875 -9.515625 C 4.460938 -9.148438 4.203125 -8.71875 4.015625 -8.21875 C 3.828125 -7.71875 3.734375 -7.179688 3.734375 -6.609375 C 3.734375 -6.023438 3.828125 -5.484375 4.015625 -4.984375 C 4.203125 -4.484375 4.460938 -4.050781 4.796875 -3.6875 C 5.128906 -3.332031 5.523438 -3.050781 5.984375 -2.84375 C 6.453125 -2.632812 6.960938 -2.53125 7.515625 -2.53125 Z M 7.515625 -2.53125 "/></g></g></g><g fill="#e8f0f9" fill-opacity="1"><g transform="translate(180.282637, 23.753822)"><g><path d="M 0.203125 -13.21875 L 3.265625 -13.21875 L 5.796875 -5.46875 L 8.875 -13.21875 L 10.390625 -13.21875 L 13.46875 -5.46875 L 16.015625 -13.21875 L 19.046875 -13.21875 L 14.453125 0.234375 L 12.9375 0.234375 L 9.625 -8.25 L 6.328125 0.234375 L 4.8125 0.234375 Z M 0.203125 -13.21875 "/></g></g></g><g fill="#008c87" fill-opacity="1"><g transform="translate(55.110322, 36.24199)"><g><path d="M 1.828125 0 L 1.828125 -4.71875 L 0.21875 -4.71875 L 0.21875 -5.53125 L 4.453125 -5.53125 L 4.453125 -4.71875 L 2.84375 -4.71875 L 2.84375 0 Z M 1.828125 0 "/></g></g></g><g fill="#008c87" fill-opacity="1"><g transform="translate(66.116867, 36.24199)"><g><path d="M 0.53125 0 L 0.53125 -5.53125 L 4.15625 -5.53125 L 4.15625 -4.71875 L 1.546875 -4.71875 L 1.546875 -3.203125 L 3.90625 -3.203125 L 3.90625 -2.40625 L 1.546875 -2.40625 L 1.546875 -0.8125 L 4.15625 -0.8125 L 4.15625 0 Z M 0.53125 0 "/></g></g></g><g fill="#008c87" fill-opacity="1"><g transform="translate(77.020618, 36.24199)"><g><path d="M 3.046875 0.09375 C 2.484375 0.09375 2 -0.0234375 1.59375 -0.265625 C 1.195312 -0.503906 0.890625 -0.835938 0.671875 -1.265625 C 0.460938 -1.691406 0.359375 -2.191406 0.359375 -2.765625 C 0.359375 -3.328125 0.460938 -3.820312 0.671875 -4.25 C 0.890625 -4.6875 1.195312 -5.023438 1.59375 -5.265625 C 2 -5.503906 2.484375 -5.625 3.046875 -5.625 C 3.710938 -5.625 4.253906 -5.457031 4.671875 -5.125 C 5.097656 -4.800781 5.363281 -4.34375 5.46875 -3.75 L 4.359375 -3.75 C 4.285156 -4.050781 4.132812 -4.285156 3.90625 -4.453125 C 3.6875 -4.628906 3.394531 -4.71875 3.03125 -4.71875 C 2.519531 -4.71875 2.117188 -4.539062 1.828125 -4.1875 C 1.535156 -3.84375 1.390625 -3.367188 1.390625 -2.765625 C 1.390625 -2.148438 1.535156 -1.671875 1.828125 -1.328125 C 2.117188 -0.984375 2.519531 -0.8125 3.03125 -0.8125 C 3.394531 -0.8125 3.6875 -0.890625 3.90625 -1.046875 C 4.132812 -1.210938 4.285156 -1.4375 4.359375 -1.71875 L 5.46875 -1.71875 C 5.363281 -1.15625 5.097656 -0.710938 4.671875 -0.390625 C 4.253906 -0.0664062 3.710938 0.09375 3.046875 0.09375 Z M 3.046875 0.09375 "/></g></g></g><g fill="#008c87" fill-opacity="1"><g transform="translate(89.18166, 36.24199)"><g><path d="M 0.53125 0 L 0.53125 -5.53125 L 1.546875 -5.53125 L 1.546875 -3.234375 L 4.03125 -3.234375 L 4.03125 -5.53125 L 5.046875 -5.53125 L 5.046875 0 L 4.03125 0 L 4.03125 -2.40625 L 1.546875 -2.40625 L 1.546875 0 Z M 0.53125 0 "/></g></g></g><g fill="#008c87" fill-opacity="1"><g transform="translate(101.097576, 36.24199)"><g><path d="M 0.53125 0 L 0.53125 -5.53125 L 1.546875 -5.53125 L 4.15625 -1.640625 L 4.15625 -5.53125 L 5.15625 -5.53125 L 5.15625 0 L 4.15625 0 L 1.546875 -3.890625 L 1.546875 0 Z M 0.53125 0 "/></g></g></g><g fill="#008c87" fill-opacity="1"><g transform="translate(113.132103, 36.24199)"><g><path d="M 3.125 0.09375 C 2.570312 0.09375 2.085938 -0.0234375 1.671875 -0.265625 C 1.265625 -0.503906 0.941406 -0.835938 0.703125 -1.265625 C 0.472656 -1.703125 0.359375 -2.203125 0.359375 -2.765625 C 0.359375 -3.328125 0.472656 -3.820312 0.703125 -4.25 C 0.941406 -4.6875 1.265625 -5.023438 1.671875 -5.265625 C 2.085938 -5.503906 2.570312 -5.625 3.125 -5.625 C 3.675781 -5.625 4.160156 -5.503906 4.578125 -5.265625 C 4.992188 -5.023438 5.316406 -4.6875 5.546875 -4.25 C 5.773438 -3.820312 5.890625 -3.328125 5.890625 -2.765625 C 5.890625 -2.203125 5.773438 -1.703125 5.546875 -1.265625 C 5.316406 -0.835938 4.992188 -0.503906 4.578125 -0.265625 C 4.160156 -0.0234375 3.675781 0.09375 3.125 0.09375 Z M 3.125 -0.8125 C 3.65625 -0.8125 4.078125 -0.984375 4.390625 -1.328125 C 4.703125 -1.679688 4.859375 -2.160156 4.859375 -2.765625 C 4.859375 -3.367188 4.703125 -3.84375 4.390625 -4.1875 C 4.078125 -4.539062 3.65625 -4.71875 3.125 -4.71875 C 2.601562 -4.71875 2.179688 -4.539062 1.859375 -4.1875 C 1.546875 -3.84375 1.390625 -3.367188 1.390625 -2.765625 C 1.390625 -2.160156 1.546875 -1.679688 1.859375 -1.328125 C 2.179688 -0.984375 2.601562 -0.8125 3.125 -0.8125 Z M 3.125 -0.8125 "/></g></g></g><g fill="#008c87" fill-opacity="1"><g transform="translate(125.720149, 36.24199)"><g><path d="M 0.53125 0 L 0.53125 -5.53125 L 1.546875 -5.53125 L 1.546875 -0.796875 L 4 -0.796875 L 4 0 Z M 0.53125 0 "/></g></g></g><g fill="#008c87" fill-opacity="1"><g transform="translate(136.410392, 36.24199)"><g><path d="M 3.125 0.09375 C 2.570312 0.09375 2.085938 -0.0234375 1.671875 -0.265625 C 1.265625 -0.503906 0.941406 -0.835938 0.703125 -1.265625 C 0.472656 -1.703125 0.359375 -2.203125 0.359375 -2.765625 C 0.359375 -3.328125 0.472656 -3.820312 0.703125 -4.25 C 0.941406 -4.6875 1.265625 -5.023438 1.671875 -5.265625 C 2.085938 -5.503906 2.570312 -5.625 3.125 -5.625 C 3.675781 -5.625 4.160156 -5.503906 4.578125 -5.265625 C 4.992188 -5.023438 5.316406 -4.6875 5.546875 -4.25 C 5.773438 -3.820312 5.890625 -3.328125 5.890625 -2.765625 C 5.890625 -2.203125 5.773438 -1.703125 5.546875 -1.265625 C 5.316406 -0.835938 4.992188 -0.503906 4.578125 -0.265625 C 4.160156 -0.0234375 3.675781 0.09375 3.125 0.09375 Z M 3.125 -0.8125 C 3.65625 -0.8125 4.078125 -0.984375 4.390625 -1.328125 C 4.703125 -1.679688 4.859375 -2.160156 4.859375 -2.765625 C 4.859375 -3.367188 4.703125 -3.84375 4.390625 -4.1875 C 4.078125 -4.539062 3.65625 -4.71875 3.125 -4.71875 C 2.601562 -4.71875 2.179688 -4.539062 1.859375 -4.1875 C 1.546875 -3.84375 1.390625 -3.367188 1.390625 -2.765625 C 1.390625 -2.160156 1.546875 -1.679688 1.859375 -1.328125 C 2.179688 -0.984375 2.601562 -0.8125 3.125 -0.8125 Z M 3.125 -0.8125 "/></g></g></g><g fill="#008c87" fill-opacity="1"><g transform="translate(148.998437, 36.24199)"><g><path d="M 2.953125 0.09375 C 2.429688 0.09375 1.972656 -0.0195312 1.578125 -0.25 C 1.191406 -0.488281 0.890625 -0.820312 0.671875 -1.25 C 0.460938 -1.675781 0.359375 -2.171875 0.359375 -2.734375 C 0.359375 -3.304688 0.46875 -3.804688 0.6875 -4.234375 C 0.914062 -4.671875 1.234375 -5.007812 1.640625 -5.25 C 2.054688 -5.5 2.550781 -5.625 3.125 -5.625 C 3.769531 -5.625 4.304688 -5.46875 4.734375 -5.15625 C 5.160156 -4.851562 5.4375 -4.425781 5.5625 -3.875 L 4.4375 -3.875 C 4.351562 -4.132812 4.195312 -4.335938 3.96875 -4.484375 C 3.75 -4.628906 3.46875 -4.703125 3.125 -4.703125 C 2.570312 -4.703125 2.144531 -4.523438 1.84375 -4.171875 C 1.539062 -3.816406 1.390625 -3.335938 1.390625 -2.734375 C 1.390625 -2.117188 1.535156 -1.644531 1.828125 -1.3125 C 2.128906 -0.976562 2.535156 -0.8125 3.046875 -0.8125 C 3.546875 -0.8125 3.921875 -0.945312 4.171875 -1.21875 C 4.429688 -1.488281 4.59375 -1.84375 4.65625 -2.28125 L 3.25 -2.28125 L 3.25 -3.046875 L 5.671875 -3.046875 L 5.671875 0 L 4.734375 0 L 4.65625 -0.734375 C 4.476562 -0.460938 4.253906 -0.253906 3.984375 -0.109375 C 3.710938 0.0234375 3.367188 0.09375 2.953125 0.09375 Z M 2.953125 0.09375 "/></g></g></g><g fill="#008c87" fill-opacity="1"><g transform="translate(161.444148, 36.24199)"><g><path d="M 1.96875 0 L 1.96875 -1.96875 L 0.109375 -5.53125 L 1.25 -5.53125 L 2.484375 -2.984375 L 3.703125 -5.53125 L 4.828125 -5.53125 L 2.984375 -1.96875 L 2.984375 0 Z M 1.96875 0 "/></g></g></g></svg>