<svg xmlns="http://www.w3.org/2000/svg" xmlns:xlink="http://www.w3.org/1999/xlink" width="270" zoomAndPan="magnify" viewBox="0 0 202.5 44.999999" height="60" preserveAspectRatio="xMidYMid meet" version="1.0"><defs><g/><clipPath id="20114f2df9"><path d="M 0 0.0546875 L 202 0.0546875 L 202 44.945312 L 0 44.945312 Z M 0 0.0546875 " clip-rule="nonzero"/></clipPath><clipPath id="e4a1e37847"><path d="M 2.246094 0.925781 L 41.898438 0.925781 L 41.898438 44.320312 L 2.246094 44.320312 Z M 2.246094 0.925781 " clip-rule="nonzero"/></clipPath><clipPath id="6e5de66ce3"><path d="M 21 17 L 41.898438 17 L 41.898438 28 L 21 28 Z M 21 17 " clip-rule="nonzero"/></clipPath><clipPath id="824eabfbfa"><path d="M 35 17 L 41.898438 17 L 41.898438 39 L 35 39 Z M 35 17 " clip-rule="nonzero"/></clipPath></defs><g clip-path="url(#20114f2df9)"><path fill="transparent" d="M 0 0.0546875 L 202 0.0546875 L 202 44.945312 L 0 44.945312 Z M 0 0.0546875 " fill-opacity="1" fill-rule="nonzero"/><path fill="transparent" d="M 0 0.0546875 L 202 0.0546875 L 202 44.945312 L 0 44.945312 Z M 0 0.0546875 " fill-opacity="1" fill-rule="nonzero"/></g><g clip-path="url(#e4a1e37847)"><path fill="#E8F0F9" d="M 12.023438 22.496094 C 12.023438 14.566406 17.5625 9.152344 25.667969 9.152344 C 28.730469 9.152344 31.425781 9.933594 33.832031 11.585938 L 41.878906 7.292969 C 37.835938 3.125 32.0625 0.925781 25.195312 0.925781 C 11.90625 0.925781 2.253906 9.925781 2.253906 22.496094 C 2.253906 35.066406 11.90625 44.0625 25.195312 44.0625 C 30.230469 44.0625 34.675781 42.878906 38.277344 40.613281 L 33.824219 33.40625 C 31.417969 35.054688 28.730469 35.835938 25.660156 35.835938 C 17.5625 35.835938 12.023438 30.421875 12.023438 22.496094 Z M 12.023438 22.496094 " fill-opacity="1" fill-rule="evenodd"/></g><g clip-path="url(#6e5de66ce3)"><path fill="#00d9d2" d="M 35.160156 27.890625 L 41.878906 17.132812 L 21.621094 27.945312 L 33.058594 27.898438 Z M 35.160156 27.890625 " fill-opacity="1" fill-rule="evenodd"/></g><g clip-path="url(#824eabfbfa)"><path fill="#008c87" d="M 41.878906 17.132812 L 35.160156 27.890625 L 41.878906 38.765625 Z M 41.878906 17.132812 " fill-opacity="1" fill-rule="evenodd"/></g><g fill="#E8F0F9" fill-opacity="1"><g transform="translate(50.114599, 22.273757)"><g><path d="M 9.46875 0.34375 C 8.226562 0.34375 7.082031 0.128906 6.03125 -0.296875 C 4.976562 -0.722656 4.066406 -1.316406 3.296875 -2.078125 C 2.535156 -2.847656 1.9375 -3.757812 1.5 -4.8125 C 1.070312 -5.863281 0.859375 -7.007812 0.859375 -8.25 C 0.859375 -9.488281 1.078125 -10.632812 1.515625 -11.6875 C 1.953125 -12.738281 2.550781 -13.648438 3.3125 -14.421875 C 4.082031 -15.203125 4.988281 -15.804688 6.03125 -16.234375 C 7.082031 -16.671875 8.21875 -16.890625 9.4375 -16.890625 C 10.71875 -16.890625 11.910156 -16.644531 13.015625 -16.15625 C 14.117188 -15.664062 15.078125 -14.957031 15.890625 -14.03125 L 13.359375 -11.578125 C 12.878906 -12.140625 12.316406 -12.582031 11.671875 -12.90625 C 11.023438 -13.226562 10.3125 -13.390625 9.53125 -13.390625 C 8.820312 -13.390625 8.171875 -13.257812 7.578125 -13 C 6.984375 -12.75 6.46875 -12.394531 6.03125 -11.9375 C 5.601562 -11.488281 5.269531 -10.953125 5.03125 -10.328125 C 4.789062 -9.703125 4.671875 -9.023438 4.671875 -8.296875 C 4.671875 -7.554688 4.789062 -6.875 5.03125 -6.25 C 5.28125 -5.625 5.625 -5.078125 6.0625 -4.609375 C 6.5 -4.148438 7.019531 -3.789062 7.625 -3.53125 C 8.238281 -3.28125 8.910156 -3.15625 9.640625 -3.15625 C 10.421875 -3.15625 11.140625 -3.320312 11.796875 -3.65625 C 12.460938 -3.988281 13.023438 -4.429688 13.484375 -4.984375 L 16 -2.59375 C 15.21875 -1.65625 14.269531 -0.929688 13.15625 -0.421875 C 12.039062 0.0859375 10.8125 0.34375 9.46875 0.34375 Z M 9.46875 0.34375 "/></g></g></g><g fill="#E8F0F9" fill-opacity="1"><g transform="translate(65.008781, 22.273757)"><g><path d="M 9.40625 0.34375 C 8.1875 0.34375 7.054688 0.125 6.015625 -0.3125 C 4.984375 -0.757812 4.082031 -1.367188 3.3125 -2.140625 C 2.550781 -2.921875 1.953125 -3.832031 1.515625 -4.875 C 1.078125 -5.925781 0.859375 -7.0625 0.859375 -8.28125 C 0.859375 -9.5 1.078125 -10.632812 1.515625 -11.6875 C 1.953125 -12.738281 2.550781 -13.648438 3.3125 -14.421875 C 4.082031 -15.203125 4.984375 -15.804688 6.015625 -16.234375 C 7.054688 -16.671875 8.1875 -16.890625 9.40625 -16.890625 C 10.613281 -16.890625 11.738281 -16.671875 12.78125 -16.234375 C 13.832031 -15.804688 14.738281 -15.203125 15.5 -14.421875 C 16.269531 -13.648438 16.867188 -12.738281 17.296875 -11.6875 C 17.734375 -10.632812 17.953125 -9.5 17.953125 -8.28125 C 17.953125 -7.0625 17.734375 -5.925781 17.296875 -4.875 C 16.867188 -3.832031 16.269531 -2.921875 15.5 -2.140625 C 14.738281 -1.367188 13.832031 -0.757812 12.78125 -0.3125 C 11.738281 0.125 10.613281 0.34375 9.40625 0.34375 Z M 9.40625 -3.15625 C 10.101562 -3.15625 10.738281 -3.28125 11.3125 -3.53125 C 11.882812 -3.789062 12.378906 -4.148438 12.796875 -4.609375 C 13.222656 -5.078125 13.554688 -5.625 13.796875 -6.25 C 14.035156 -6.875 14.15625 -7.550781 14.15625 -8.28125 C 14.15625 -9 14.035156 -9.671875 13.796875 -10.296875 C 13.554688 -10.921875 13.222656 -11.457031 12.796875 -11.90625 C 12.378906 -12.363281 11.882812 -12.722656 11.3125 -12.984375 C 10.738281 -13.253906 10.101562 -13.390625 9.40625 -13.390625 C 8.71875 -13.390625 8.082031 -13.253906 7.5 -12.984375 C 6.925781 -12.722656 6.429688 -12.363281 6.015625 -11.90625 C 5.597656 -11.457031 5.269531 -10.921875 5.03125 -10.296875 C 4.789062 -9.671875 4.671875 -9 4.671875 -8.28125 C 4.671875 -7.550781 4.789062 -6.875 5.03125 -6.25 C 5.269531 -5.625 5.597656 -5.082031 6.015625 -4.625 C 6.429688 -4.175781 6.925781 -3.816406 7.5 -3.546875 C 8.082031 -3.285156 8.71875 -3.15625 9.40625 -3.15625 Z M 9.40625 -3.15625 "/></g></g></g><g fill="#E8F0F9" fill-opacity="1"><g transform="translate(82.224843, 22.273757)"><g><path d="M 1.859375 -16.546875 L 8.40625 -16.546875 C 9.632812 -16.546875 10.769531 -16.335938 11.8125 -15.921875 C 12.863281 -15.503906 13.769531 -14.925781 14.53125 -14.1875 C 15.300781 -13.457031 15.90625 -12.582031 16.34375 -11.5625 C 16.78125 -10.550781 17 -9.457031 17 -8.28125 C 17 -7.09375 16.78125 -5.992188 16.34375 -4.984375 C 15.90625 -3.984375 15.300781 -3.113281 14.53125 -2.375 C 13.769531 -1.632812 12.863281 -1.050781 11.8125 -0.625 C 10.769531 -0.207031 9.632812 0 8.40625 0 L 1.859375 0 Z M 8.421875 -3.390625 C 9.117188 -3.390625 9.753906 -3.507812 10.328125 -3.75 C 10.898438 -4 11.398438 -4.34375 11.828125 -4.78125 C 12.253906 -5.21875 12.585938 -5.734375 12.828125 -6.328125 C 13.066406 -6.921875 13.1875 -7.570312 13.1875 -8.28125 C 13.1875 -8.988281 13.066406 -9.632812 12.828125 -10.21875 C 12.585938 -10.8125 12.253906 -11.328125 11.828125 -11.765625 C 11.398438 -12.203125 10.898438 -12.546875 10.328125 -12.796875 C 9.753906 -13.046875 9.117188 -13.171875 8.421875 -13.171875 L 5.453125 -13.171875 L 5.453125 -3.390625 Z M 8.421875 -3.390625 "/></g></g></g><g fill="#E8F0F9" fill-opacity="1"><g transform="translate(98.477574, 22.273757)"><g><path d="M 1.859375 -16.546875 L 11.3125 -16.546875 L 11.3125 -13.171875 L 5.453125 -13.171875 L 5.453125 -10.125 L 9.734375 -10.125 L 9.734375 -6.75 L 5.453125 -6.75 L 5.453125 -3.390625 L 11.4375 -3.390625 L 11.4375 0 L 1.859375 0 Z M 1.859375 -16.546875 "/></g></g></g><g fill="#E8F0F9" fill-opacity="1"><g transform="translate(109.543135, 22.273757)"><g/></g></g><g fill="#E8F0F9" fill-opacity="1"><g transform="translate(113.371356, 22.273757)"><g><path d="M 6.765625 -16.84375 L 9.0625 -16.84375 L 15.59375 0 L 11.78125 0 L 10.765625 -2.796875 L 5.0625 -2.796875 L 4.078125 0 L 0.25 0 Z M 9.65625 -5.90625 L 7.921875 -10.765625 L 6.171875 -5.90625 Z M 9.65625 -5.90625 "/></g></g></g><g fill="#E8F0F9" fill-opacity="1"><g transform="translate(127.59862, 22.273757)"><g><path d="M 1.859375 -16.546875 L 7.046875 -16.546875 C 7.898438 -16.546875 8.691406 -16.414062 9.421875 -16.15625 C 10.160156 -15.894531 10.789062 -15.523438 11.3125 -15.046875 C 11.84375 -14.566406 12.253906 -13.992188 12.546875 -13.328125 C 12.847656 -12.671875 13 -11.957031 13 -11.1875 C 13 -10.195312 12.757812 -9.300781 12.28125 -8.5 C 11.800781 -7.707031 11.140625 -7.085938 10.296875 -6.640625 L 14.171875 0 L 9.984375 0 L 6.765625 -5.8125 L 5.453125 -5.8125 L 5.453125 0 L 1.859375 0 Z M 6.875 -8.984375 C 7.644531 -8.984375 8.253906 -9.175781 8.703125 -9.5625 C 9.160156 -9.957031 9.390625 -10.492188 9.390625 -11.171875 C 9.390625 -11.835938 9.15625 -12.335938 8.6875 -12.671875 C 8.226562 -13.003906 7.625 -13.171875 6.875 -13.171875 L 5.453125 -13.171875 L 5.453125 -8.984375 Z M 6.875 -8.984375 "/></g></g></g><g fill="#E8F0F9" fill-opacity="1"><g transform="translate(140.541435, 22.273757)"><g><path d="M 1.859375 -16.546875 L 7.046875 -16.546875 C 7.898438 -16.546875 8.691406 -16.414062 9.421875 -16.15625 C 10.160156 -15.894531 10.789062 -15.523438 11.3125 -15.046875 C 11.84375 -14.566406 12.253906 -13.992188 12.546875 -13.328125 C 12.847656 -12.671875 13 -11.957031 13 -11.1875 C 13 -10.195312 12.757812 -9.300781 12.28125 -8.5 C 11.800781 -7.707031 11.140625 -7.085938 10.296875 -6.640625 L 14.171875 0 L 9.984375 0 L 6.765625 -5.8125 L 5.453125 -5.8125 L 5.453125 0 L 1.859375 0 Z M 6.875 -8.984375 C 7.644531 -8.984375 8.253906 -9.175781 8.703125 -9.5625 C 9.160156 -9.957031 9.390625 -10.492188 9.390625 -11.171875 C 9.390625 -11.835938 9.15625 -12.335938 8.6875 -12.671875 C 8.226562 -13.003906 7.625 -13.171875 6.875 -13.171875 L 5.453125 -13.171875 L 5.453125 -8.984375 Z M 6.875 -8.984375 "/></g></g></g><g fill="#E8F0F9" fill-opacity="1"><g transform="translate(153.484251, 22.273757)"><g><path d="M 9.40625 0.34375 C 8.1875 0.34375 7.054688 0.125 6.015625 -0.3125 C 4.984375 -0.757812 4.082031 -1.367188 3.3125 -2.140625 C 2.550781 -2.921875 1.953125 -3.832031 1.515625 -4.875 C 1.078125 -5.925781 0.859375 -7.0625 0.859375 -8.28125 C 0.859375 -9.5 1.078125 -10.632812 1.515625 -11.6875 C 1.953125 -12.738281 2.550781 -13.648438 3.3125 -14.421875 C 4.082031 -15.203125 4.984375 -15.804688 6.015625 -16.234375 C 7.054688 -16.671875 8.1875 -16.890625 9.40625 -16.890625 C 10.613281 -16.890625 11.738281 -16.671875 12.78125 -16.234375 C 13.832031 -15.804688 14.738281 -15.203125 15.5 -14.421875 C 16.269531 -13.648438 16.867188 -12.738281 17.296875 -11.6875 C 17.734375 -10.632812 17.953125 -9.5 17.953125 -8.28125 C 17.953125 -7.0625 17.734375 -5.925781 17.296875 -4.875 C 16.867188 -3.832031 16.269531 -2.921875 15.5 -2.140625 C 14.738281 -1.367188 13.832031 -0.757812 12.78125 -0.3125 C 11.738281 0.125 10.613281 0.34375 9.40625 0.34375 Z M 9.40625 -3.15625 C 10.101562 -3.15625 10.738281 -3.28125 11.3125 -3.53125 C 11.882812 -3.789062 12.378906 -4.148438 12.796875 -4.609375 C 13.222656 -5.078125 13.554688 -5.625 13.796875 -6.25 C 14.035156 -6.875 14.15625 -7.550781 14.15625 -8.28125 C 14.15625 -9 14.035156 -9.671875 13.796875 -10.296875 C 13.554688 -10.921875 13.222656 -11.457031 12.796875 -11.90625 C 12.378906 -12.363281 11.882812 -12.722656 11.3125 -12.984375 C 10.738281 -13.253906 10.101562 -13.390625 9.40625 -13.390625 C 8.71875 -13.390625 8.082031 -13.253906 7.5 -12.984375 C 6.925781 -12.722656 6.429688 -12.363281 6.015625 -11.90625 C 5.597656 -11.457031 5.269531 -10.921875 5.03125 -10.296875 C 4.789062 -9.671875 4.671875 -9 4.671875 -8.28125 C 4.671875 -7.550781 4.789062 -6.875 5.03125 -6.25 C 5.269531 -5.625 5.597656 -5.082031 6.015625 -4.625 C 6.429688 -4.175781 6.925781 -3.816406 7.5 -3.546875 C 8.082031 -3.285156 8.71875 -3.15625 9.40625 -3.15625 Z M 9.40625 -3.15625 "/></g></g></g><g fill="#E8F0F9" fill-opacity="1"><g transform="translate(170.700313, 22.273757)"><g><path d="M 0.25 -16.546875 L 4.09375 -16.546875 L 7.265625 -6.84375 L 11.109375 -16.546875 L 13.015625 -16.546875 L 16.875 -6.84375 L 20.0625 -16.546875 L 23.859375 -16.546875 L 18.109375 0.296875 L 16.203125 0.296875 L 12.0625 -10.328125 L 7.921875 0.296875 L 6.03125 0.296875 Z M 0.25 -16.546875 "/></g></g></g><g fill="#008c87" fill-opacity="1"><g transform="translate(50.114599, 41.292027)"><g><path d="M 2.984375 0 L 2.984375 -7.703125 L 0.34375 -7.703125 L 0.34375 -9.015625 L 7.265625 -9.015625 L 7.265625 -7.703125 L 4.625 -7.703125 L 4.625 0 Z M 2.984375 0 "/></g></g></g><g fill="#008c87" fill-opacity="1"><g transform="translate(63.567568, 41.292027)"><g><path d="M 0.875 0 L 0.875 -9.015625 L 6.765625 -9.015625 L 6.765625 -7.703125 L 2.53125 -7.703125 L 2.53125 -5.21875 L 6.375 -5.21875 L 6.375 -3.9375 L 2.53125 -3.9375 L 2.53125 -1.328125 L 6.765625 -1.328125 L 6.765625 0 Z M 0.875 0 "/></g></g></g><g fill="#008c87" fill-opacity="1"><g transform="translate(76.852918, 41.292027)"><g><path d="M 4.96875 0.15625 C 4.050781 0.15625 3.265625 -0.0351562 2.609375 -0.421875 C 1.960938 -0.816406 1.460938 -1.363281 1.109375 -2.0625 C 0.753906 -2.769531 0.578125 -3.582031 0.578125 -4.5 C 0.578125 -5.414062 0.753906 -6.222656 1.109375 -6.921875 C 1.460938 -7.628906 1.960938 -8.179688 2.609375 -8.578125 C 3.265625 -8.972656 4.050781 -9.171875 4.96875 -9.171875 C 6.050781 -9.171875 6.9375 -8.898438 7.625 -8.359375 C 8.3125 -7.828125 8.742188 -7.078125 8.921875 -6.109375 L 7.109375 -6.109375 C 6.992188 -6.597656 6.753906 -6.984375 6.390625 -7.265625 C 6.023438 -7.546875 5.539062 -7.6875 4.9375 -7.6875 C 4.101562 -7.6875 3.445312 -7.398438 2.96875 -6.828125 C 2.5 -6.265625 2.265625 -5.488281 2.265625 -4.5 C 2.265625 -3.507812 2.5 -2.734375 2.96875 -2.171875 C 3.445312 -1.609375 4.101562 -1.328125 4.9375 -1.328125 C 5.539062 -1.328125 6.023438 -1.457031 6.390625 -1.71875 C 6.753906 -1.976562 6.992188 -2.34375 7.109375 -2.8125 L 8.921875 -2.8125 C 8.742188 -1.882812 8.3125 -1.15625 7.625 -0.625 C 6.9375 -0.101562 6.050781 0.15625 4.96875 0.15625 Z M 4.96875 0.15625 "/></g></g></g><g fill="#008c87" fill-opacity="1"><g transform="translate(92.188392, 41.292027)"><g><path d="M 0.875 0 L 0.875 -9.015625 L 2.53125 -9.015625 L 2.53125 -5.265625 L 6.578125 -5.265625 L 6.578125 -9.015625 L 8.21875 -9.015625 L 8.21875 0 L 6.578125 0 L 6.578125 -3.9375 L 2.53125 -3.9375 L 2.53125 0 Z M 0.875 0 "/></g></g></g><g fill="#008c87" fill-opacity="1"><g transform="translate(107.124161, 41.292027)"><g><path d="M 0.875 0 L 0.875 -9.015625 L 2.53125 -9.015625 L 6.765625 -2.671875 L 6.765625 -9.015625 L 8.421875 -9.015625 L 8.421875 0 L 6.765625 0 L 2.53125 -6.34375 L 2.53125 0 Z M 0.875 0 "/></g></g></g><g fill="#008c87" fill-opacity="1"><g transform="translate(122.253339, 41.292027)"><g><path d="M 5.109375 0.15625 C 4.203125 0.15625 3.410156 -0.0390625 2.734375 -0.4375 C 2.066406 -0.832031 1.539062 -1.378906 1.15625 -2.078125 C 0.769531 -2.773438 0.578125 -3.585938 0.578125 -4.515625 C 0.578125 -5.429688 0.769531 -6.238281 1.15625 -6.9375 C 1.539062 -7.632812 2.066406 -8.179688 2.734375 -8.578125 C 3.410156 -8.972656 4.203125 -9.171875 5.109375 -9.171875 C 5.992188 -9.171875 6.773438 -8.972656 7.453125 -8.578125 C 8.140625 -8.179688 8.671875 -7.632812 9.046875 -6.9375 C 9.421875 -6.238281 9.609375 -5.429688 9.609375 -4.515625 C 9.609375 -3.585938 9.421875 -2.773438 9.046875 -2.078125 C 8.671875 -1.378906 8.140625 -0.832031 7.453125 -0.4375 C 6.773438 -0.0390625 5.992188 0.15625 5.109375 0.15625 Z M 5.109375 -1.328125 C 5.960938 -1.328125 6.644531 -1.609375 7.15625 -2.171875 C 7.664062 -2.742188 7.921875 -3.523438 7.921875 -4.515625 C 7.921875 -5.503906 7.664062 -6.28125 7.15625 -6.84375 C 6.644531 -7.414062 5.960938 -7.703125 5.109375 -7.703125 C 4.242188 -7.703125 3.550781 -7.414062 3.03125 -6.84375 C 2.519531 -6.28125 2.265625 -5.503906 2.265625 -4.515625 C 2.265625 -3.523438 2.519531 -2.742188 3.03125 -2.171875 C 3.550781 -1.609375 4.242188 -1.328125 5.109375 -1.328125 Z M 5.109375 -1.328125 "/></g></g></g><g fill="#008c87" fill-opacity="1"><g transform="translate(138.285093, 41.292027)"><g><path d="M 0.875 0 L 0.875 -9.015625 L 2.53125 -9.015625 L 2.53125 -1.28125 L 6.515625 -1.28125 L 6.515625 0 Z M 0.875 0 "/></g></g></g><g fill="#008c87" fill-opacity="1"><g transform="translate(151.222303, 41.292027)"><g><path d="M 5.109375 0.15625 C 4.203125 0.15625 3.410156 -0.0390625 2.734375 -0.4375 C 2.066406 -0.832031 1.539062 -1.378906 1.15625 -2.078125 C 0.769531 -2.773438 0.578125 -3.585938 0.578125 -4.515625 C 0.578125 -5.429688 0.769531 -6.238281 1.15625 -6.9375 C 1.539062 -7.632812 2.066406 -8.179688 2.734375 -8.578125 C 3.410156 -8.972656 4.203125 -9.171875 5.109375 -9.171875 C 5.992188 -9.171875 6.773438 -8.972656 7.453125 -8.578125 C 8.140625 -8.179688 8.671875 -7.632812 9.046875 -6.9375 C 9.421875 -6.238281 9.609375 -5.429688 9.609375 -4.515625 C 9.609375 -3.585938 9.421875 -2.773438 9.046875 -2.078125 C 8.671875 -1.378906 8.140625 -0.832031 7.453125 -0.4375 C 6.773438 -0.0390625 5.992188 0.15625 5.109375 0.15625 Z M 5.109375 -1.328125 C 5.960938 -1.328125 6.644531 -1.609375 7.15625 -2.171875 C 7.664062 -2.742188 7.921875 -3.523438 7.921875 -4.515625 C 7.921875 -5.503906 7.664062 -6.28125 7.15625 -6.84375 C 6.644531 -7.414062 5.960938 -7.703125 5.109375 -7.703125 C 4.242188 -7.703125 3.550781 -7.414062 3.03125 -6.84375 C 2.519531 -6.28125 2.265625 -5.503906 2.265625 -4.515625 C 2.265625 -3.523438 2.519531 -2.742188 3.03125 -2.171875 C 3.550781 -1.609375 4.242188 -1.328125 5.109375 -1.328125 Z M 5.109375 -1.328125 "/></g></g></g><g fill="#008c87" fill-opacity="1"><g transform="translate(167.254057, 41.292027)"><g><path d="M 4.828125 0.15625 C 3.972656 0.15625 3.226562 -0.0351562 2.59375 -0.421875 C 1.957031 -0.804688 1.460938 -1.34375 1.109375 -2.03125 C 0.753906 -2.726562 0.578125 -3.535156 0.578125 -4.453125 C 0.578125 -5.390625 0.757812 -6.210938 1.125 -6.921875 C 1.488281 -7.628906 2.007812 -8.179688 2.6875 -8.578125 C 3.363281 -8.972656 4.164062 -9.171875 5.09375 -9.171875 C 6.144531 -9.171875 7.019531 -8.914062 7.71875 -8.40625 C 8.414062 -7.90625 8.867188 -7.207031 9.078125 -6.3125 L 7.234375 -6.3125 C 7.097656 -6.738281 6.847656 -7.066406 6.484375 -7.296875 C 6.117188 -7.535156 5.65625 -7.65625 5.09375 -7.65625 C 4.1875 -7.65625 3.488281 -7.367188 3 -6.796875 C 2.507812 -6.222656 2.265625 -5.441406 2.265625 -4.453125 C 2.265625 -3.453125 2.503906 -2.675781 2.984375 -2.125 C 3.472656 -1.582031 4.132812 -1.3125 4.96875 -1.3125 C 5.789062 -1.3125 6.410156 -1.53125 6.828125 -1.96875 C 7.242188 -2.414062 7.492188 -3 7.578125 -3.71875 L 5.296875 -3.71875 L 5.296875 -4.96875 L 9.25 -4.96875 L 9.25 0 L 7.71875 0 L 7.59375 -1.1875 C 7.300781 -0.757812 6.9375 -0.425781 6.5 -0.1875 C 6.0625 0.0390625 5.503906 0.15625 4.828125 0.15625 Z M 4.828125 0.15625 "/></g></g></g><g fill="#008c87" fill-opacity="1"><g transform="translate(183.053714, 41.292027)"><g><path d="M 3.203125 0 L 3.203125 -3.203125 L 0.1875 -9.015625 L 2.046875 -9.015625 L 4.046875 -4.859375 L 6.03125 -9.015625 L 7.875 -9.015625 L 4.859375 -3.203125 L 4.859375 0 Z M 3.203125 0 "/></g></g></g></svg>