<svg width="72" height="68" viewBox="0 0 72 68" fill="none" xmlns="http://www.w3.org/2000/svg">
<g filter="url(#filter0_f_2183_4367)">
<path d="M56.5 19.4684C52.9445 14.2897 45.9919 11.6636 35.8389 11.6636H35.8224C25.6848 11.6664 18.7494 14.2937 15.2092 19.4724C12.2454 23.8072 11.8657 29.3338 11.8657 33.6636C11.8657 37.9933 12.2454 43.5194 15.2092 47.8542C18.7494 53.0323 25.6848 55.6596 35.823 55.6636H35.8429C45.9953 55.6636 52.9451 53.038 56.5006 47.8593C59.4826 43.5148 59.8657 37.991 59.8657 33.6641C59.8657 29.3372 59.4838 23.8134 56.5012 19.4696H56.5006L56.5 19.4684Z" fill="url(#paint0_linear_2183_4367)"/>
</g>
<path d="M55.8387 19.8862C52.3972 14.8736 45.6675 12.3313 35.8401 12.3313H35.8235C26.0109 12.3341 19.2977 14.877 15.8716 19.8896C13.003 24.0856 12.6353 29.4349 12.6353 33.6257C12.6353 37.8166 13.003 43.1653 15.8716 47.3613C19.2983 52.3733 26.0115 54.9168 35.8241 54.9202H35.8429C45.6698 54.9202 52.3967 52.3784 55.8382 47.3658C58.725 43.1608 59.0956 37.8138 59.0956 33.6257C59.0956 29.4377 58.7256 24.0913 55.8387 19.8862Z" fill="#09090A"/>
<g clip-path="url(#clip0_2183_4367)">
<mask id="mask0_2183_4367" style="mask-type:luminance" maskUnits="userSpaceOnUse" x="24" y="23" width="24" height="21">
<path d="M48 23H24V44H48V23Z" fill="white"/>
</mask>
<g mask="url(#mask0_2183_4367)">
<path d="M45.327 29.2219C45.279 29.1709 45.228 29.1199 45.177 29.0719C45.126 29.0239 45.078 28.9699 45.027 28.9219C44.976 28.8739 44.928 28.8199 44.877 28.7719C44.826 28.7239 44.778 28.6699 44.727 28.6219C44.676 28.5739 44.628 28.5199 44.577 28.4719C44.526 28.4239 44.478 28.3699 44.427 28.3219C44.376 28.2739 44.328 28.2199 44.277 28.1719C45.765 29.6343 46.6175 31.6238 46.65 33.7099C46.65 38.6809 41.604 42.7249 35.4 42.7249C31.926 42.7249 28.818 41.4559 26.751 39.4669L26.901 39.6169L27.051 39.7669L27.201 39.9169L27.351 40.0669L27.501 40.2169L27.651 40.3669L27.801 40.5169C29.865 42.5899 33.042 43.9249 36.6 43.9249C42.804 43.9249 47.85 39.8809 47.85 34.9249C47.85 32.8069 46.938 30.7999 45.327 29.2219Z" fill="black"/>
<path d="M45.9 33.7099C45.9 38.2729 41.199 41.9719 35.4 41.9719C29.601 41.9719 24.9 38.2729 24.9 33.7099C24.9 30.8809 26.7 28.3819 29.466 26.8999C32.232 25.4179 33.954 23.8999 35.4 23.8999C36.846 23.8999 38.082 25.1389 41.334 26.8999C44.1 28.3819 45.9 30.8809 45.9 33.7099Z" fill="#FBF0DF"/>
<path d="M45.9 33.7098C45.8985 33.1237 45.8178 32.5404 45.66 31.9758C44.841 41.9658 32.655 42.4458 27.864 39.4578C30.0177 41.1272 32.6754 42.0138 35.4 41.9718C41.19 41.9718 45.9 38.2668 45.9 33.7098Z" fill="#F6DECE"/>
<path d="M31.359 26.3509C32.7 25.5469 34.482 24.0379 36.234 24.0349C35.9645 23.9478 35.6833 23.9023 35.4 23.8999C34.674 23.8999 33.9 24.2749 32.925 24.8389C32.586 25.0369 32.235 25.2559 31.863 25.4839C31.164 25.9159 30.363 26.4049 29.463 26.8939C26.607 28.4389 24.9 30.9859 24.9 33.7099C24.9 33.8299 24.9 33.9499 24.9 34.0669C26.718 27.6439 30.021 27.1549 31.359 26.3509Z" fill="#FFFEFC"/>
<path fill-rule="evenodd" clip-rule="evenodd" d="M34.536 24.6589C34.5402 25.3672 34.3915 26.0682 34.1 26.7138C33.8085 27.3594 33.3811 27.9345 32.847 28.3999C32.763 28.4749 32.829 28.6189 32.937 28.5769C33.948 28.1839 35.313 27.0079 34.737 24.6349C34.713 24.4999 34.536 24.5359 34.536 24.6589ZM35.217 24.6589C35.5841 25.2578 35.8173 25.929 35.9007 26.6265C35.9841 27.324 35.9156 28.0313 35.7 28.6999C35.664 28.8049 35.793 28.8949 35.865 28.8079C36.522 27.9679 37.095 26.2999 35.379 24.4999C35.292 24.4219 35.157 24.5419 35.217 24.6469V24.6589ZM36.045 24.6079C36.6199 25.0148 37.1008 25.5403 37.4553 26.1489C37.8098 26.7575 38.0296 27.4351 38.1 28.1359C38.097 28.1611 38.1038 28.1866 38.119 28.207C38.1342 28.2273 38.1567 28.2411 38.1818 28.2453C38.2069 28.2496 38.2326 28.244 38.2537 28.2298C38.2748 28.2155 38.2896 28.1937 38.295 28.1689C38.571 27.1219 38.415 25.3369 36.144 24.4099C36.024 24.3619 35.946 24.5239 36.045 24.5959V24.6079ZM30.507 27.7279C31.1908 27.5236 31.8239 27.1776 32.3651 26.7124C32.9063 26.2472 33.3434 25.6732 33.648 25.0279C33.702 24.9199 33.873 24.9619 33.846 25.0819C33.327 27.4819 31.59 27.9829 30.51 27.9169C30.396 27.9199 30.399 27.7609 30.507 27.7279Z" fill="#CCBEA7"/>
<path d="M35.4 42.7249C29.196 42.7249 24.15 38.6809 24.15 33.7099C24.15 30.7099 26.004 27.9109 29.109 26.2339C30.009 25.7539 30.78 25.2709 31.467 24.8479C31.845 24.6139 32.202 24.3949 32.547 24.1909C33.6 23.5669 34.5 23.1499 35.4 23.1499C36.3 23.1499 37.086 23.5099 38.07 24.0919C38.37 24.2629 38.67 24.4489 38.991 24.6529C39.738 25.1149 40.581 25.6369 41.691 26.2339C44.796 27.9109 46.65 30.7069 46.65 33.7099C46.65 38.6809 41.604 42.7249 35.4 42.7249ZM35.4 23.8999C34.674 23.8999 33.9 24.2749 32.925 24.8389C32.586 25.0369 32.235 25.2559 31.863 25.4839C31.164 25.9159 30.363 26.4049 29.463 26.8939C26.607 28.4389 24.9 30.9859 24.9 33.7099C24.9 38.2669 29.61 41.9749 35.4 41.9749C41.19 41.9749 45.9 38.2669 45.9 33.7099C45.9 30.9859 44.193 28.4389 41.334 26.8999C40.2 26.2999 39.315 25.7359 38.598 25.2919C38.271 25.0909 37.971 24.9049 37.698 24.7399C36.789 24.1999 36.126 23.8999 35.4 23.8999Z" fill="black"/>
<path d="M37.5151 35.8998C37.3803 36.4518 37.0735 36.9466 36.6391 37.3128C36.3129 37.629 35.8906 37.8275 35.4391 37.8768C34.9739 37.8353 34.5368 37.6363 34.2001 37.3128C33.77 36.9449 33.4676 36.4503 33.3361 35.8998C33.3317 35.8671 33.3349 35.8339 33.3454 35.8026C33.3558 35.7714 33.3733 35.7429 33.3965 35.7195C33.4196 35.696 33.4479 35.6782 33.479 35.6673C33.5101 35.6565 33.5433 35.6529 33.5761 35.6568H37.2781C37.3105 35.6534 37.3434 35.6573 37.3741 35.6684C37.4049 35.6795 37.4327 35.6974 37.4555 35.7208C37.4784 35.7442 37.4956 35.7725 37.5059 35.8035C37.5162 35.8345 37.5193 35.8674 37.5151 35.8998Z" fill="#B71422"/>
<path d="M34.2001 37.3368C34.5362 37.6605 34.9717 37.8613 35.4361 37.9068C35.8994 37.8606 36.3337 37.6598 36.6691 37.3368C36.7763 37.2368 36.8766 37.1295 36.9691 37.0158C36.7843 36.8061 36.5585 36.6365 36.3057 36.5173C36.0529 36.3981 35.7784 36.3319 35.4991 36.3228C35.2002 36.3298 34.9075 36.4094 34.6462 36.5547C34.3849 36.7 34.1628 36.9066 33.9991 37.1568C34.0681 37.2198 34.1281 37.2798 34.2001 37.3368Z" fill="#FF6164"/>
<path d="M34.2481 37.0996C34.3968 36.9073 34.5872 36.7513 34.8049 36.6432C35.0226 36.5352 35.262 36.4778 35.5051 36.4756C35.9543 36.4888 36.3824 36.6697 36.7051 36.9826C36.7741 36.9076 36.8401 36.8296 36.9031 36.7516C36.5214 36.3881 36.017 36.1815 35.4901 36.1726C35.2084 36.175 34.9308 36.2398 34.6772 36.3622C34.4236 36.4846 34.2002 36.6616 34.0231 36.8806C34.094 36.9577 34.1691 37.0308 34.2481 37.0996Z" fill="black"/>
<path d="M35.4271 38.0567C34.9271 38.0129 34.4567 37.8015 34.0921 37.4567C33.6277 37.064 33.3008 36.5332 33.1591 35.9417C33.1489 35.8891 33.1506 35.8348 33.1641 35.7829C33.1776 35.731 33.2025 35.6828 33.2371 35.6417C33.2782 35.5921 33.3301 35.5525 33.3888 35.526C33.4476 35.4994 33.5116 35.4867 33.5761 35.4887H37.2781C37.3424 35.4874 37.4062 35.5004 37.4648 35.5269C37.5235 35.5534 37.5755 35.5926 37.6171 35.6417C37.6512 35.6829 37.6757 35.7313 37.6887 35.7832C37.7017 35.8351 37.7028 35.8893 37.6921 35.9417C37.5503 36.5332 37.2234 37.064 36.7591 37.4567C36.3952 37.8009 35.9259 38.0123 35.4271 38.0567ZM33.5761 35.8367C33.5281 35.8367 33.5161 35.8577 33.5131 35.8637C33.6399 36.3766 33.9267 36.8358 34.3321 37.1747C34.6284 37.4667 35.0138 37.6515 35.4271 37.6997C35.8392 37.652 36.2242 37.4696 36.5221 37.1807C36.9261 36.8413 37.2119 36.3822 37.3381 35.8697C37.3315 35.8601 37.3224 35.8525 37.3118 35.8478C37.3013 35.843 37.2896 35.8413 37.2781 35.8427L33.5761 35.8367Z" fill="black"/>
<path d="M39.9661 36.086C40.9353 36.086 41.7211 35.6239 41.7211 35.054C41.7211 34.484 40.9353 34.022 39.9661 34.022C38.9968 34.022 38.2111 34.484 38.2111 35.054C38.2111 35.6239 38.9968 36.086 39.9661 36.086Z" fill="#FEBBD0"/>
<path d="M30.8851 36.086C31.8543 36.086 32.6401 35.6239 32.6401 35.054C32.6401 34.484 31.8543 34.022 30.8851 34.022C29.9158 34.022 29.1301 34.484 29.1301 35.054C29.1301 35.6239 29.9158 36.086 30.8851 36.086Z" fill="#FEBBD0"/>
<path fill-rule="evenodd" clip-rule="evenodd" d="M31.7101 34.64C32.0371 34.6406 32.357 34.5441 32.6292 34.3628C32.9014 34.1816 33.1138 33.9236 33.2394 33.6216C33.3649 33.3196 33.3981 32.9872 33.3346 32.6663C33.2712 32.3455 33.114 32.0507 32.883 31.8192C32.6519 31.5877 32.3574 31.43 32.0366 31.366C31.7159 31.3019 31.3834 31.3345 31.0812 31.4595C30.7789 31.5845 30.5206 31.7964 30.3388 32.0683C30.1571 32.3402 30.0601 32.6599 30.0601 32.987C30.0601 33.4249 30.2338 33.8449 30.5431 34.1548C30.8525 34.4647 31.2722 34.6392 31.7101 34.64ZM39.1411 34.64C39.4685 34.6424 39.7892 34.5474 40.0627 34.3673C40.3361 34.1871 40.5498 33.9297 40.6768 33.6279C40.8037 33.3261 40.8382 32.9933 40.7758 32.6719C40.7133 32.3505 40.5568 32.0548 40.3261 31.8224C40.0955 31.5901 39.801 31.4314 39.48 31.3667C39.159 31.3019 38.826 31.3339 38.5233 31.4587C38.2205 31.5834 37.9617 31.7953 37.7795 32.0674C37.5973 32.3395 37.5001 32.6595 37.5001 32.987C37.4992 33.4235 37.6715 33.8426 37.9791 34.1525C38.2867 34.4623 38.7045 34.6376 39.1411 34.64Z" fill="black"/>
<path fill-rule="evenodd" clip-rule="evenodd" d="M31.2001 33.0919C31.323 33.0925 31.4434 33.0565 31.5459 32.9887C31.6484 32.9208 31.7285 32.824 31.7759 32.7106C31.8234 32.5972 31.8362 32.4722 31.8125 32.3516C31.7889 32.2309 31.73 32.12 31.6433 32.0328C31.5565 31.9457 31.4459 31.8862 31.3253 31.862C31.2048 31.8378 31.0798 31.8499 30.9662 31.8968C30.8525 31.9438 30.7553 32.0234 30.6869 32.1255C30.6186 32.2277 30.5821 32.3479 30.5821 32.4709C30.5821 32.635 30.6471 32.7925 30.7629 32.9089C30.8787 33.0253 31.0359 33.0911 31.2001 33.0919ZM38.6311 33.0919C38.754 33.0925 38.8744 33.0565 38.9769 32.9887C39.0794 32.9208 39.1595 32.824 39.2069 32.7106C39.2544 32.5972 39.2672 32.4722 39.2435 32.3516C39.2199 32.2309 39.161 32.12 39.0743 32.0328C38.9875 31.9457 38.8769 31.8862 38.7563 31.862C38.6358 31.8378 38.5108 31.8499 38.3972 31.8968C38.2835 31.9438 38.1863 32.0234 38.1179 32.1255C38.0496 32.2277 38.0131 32.3479 38.0131 32.4709C38.0131 32.634 38.0773 32.7906 38.1918 32.9068C38.3063 33.023 38.462 33.0895 38.6251 33.0919H38.6311Z" fill="white"/>
</g>
</g>
<defs>
<filter id="filter0_f_2183_4367" x="0.464297" y="0.262149" width="70.8029" height="66.8029" filterUnits="userSpaceOnUse" color-interpolation-filters="sRGB">
<feFlood flood-opacity="0" result="BackgroundImageFix"/>
<feBlend mode="normal" in="SourceGraphic" in2="BackgroundImageFix" result="shape"/>
<feGaussianBlur stdDeviation="5.70071" result="effect1_foregroundBlur_2183_4367"/>
</filter>
<linearGradient id="paint0_linear_2183_4367" x1="11.8652" y1="33.663" x2="59.8652" y2="33.663" gradientUnits="userSpaceOnUse">
<stop stop-color="#FBF0DF"/>
<stop offset="0.0689996" stop-color="#FBECDE" stop-opacity="0.8"/>
<stop offset="1" stop-color="#FEBBD0" stop-opacity="0.25"/>
</linearGradient>
<clipPath id="clip0_2183_4367">
<rect width="24" height="21" fill="white" transform="translate(24 23)"/>
</clipPath>
</defs>
</svg>
