<svg width="48" height="48" viewBox="0 0 48 48" fill="none" xmlns="http://www.w3.org/2000/svg">
<path fill-rule="evenodd" clip-rule="evenodd" d="M3.62262 20.4635C3.52891 20.4635 3.50577 20.4164 3.55243 20.3466L4.04332 19.7154C4.0896 19.6452 4.20682 19.5985 4.30014 19.5985H12.6437C12.7374 19.5985 12.7605 19.6687 12.7139 19.7389L12.3167 20.3466C12.27 20.4164 12.1532 20.4866 12.083 20.4866L3.62262 20.4635ZM0.0934618 22.6133C0.000142872 22.6133 -0.0233796 22.567 0.0232798 22.4964L0.514168 21.8656C0.560828 21.7954 0.67767 21.7487 0.771374 21.7487H11.4282C11.5216 21.7487 11.5686 21.8189 11.5451 21.8891L11.3581 22.4498C11.3349 22.5435 11.2412 22.5901 11.1479 22.5901L0.0934618 22.6133ZM5.7489 24.7635C5.65558 24.7635 5.63244 24.6933 5.6791 24.6231L6.00611 24.0389C6.05315 23.9687 6.14647 23.8989 6.24017 23.8989H10.9138C11.0075 23.8989 11.0542 23.9687 11.0542 24.0624L11.0079 24.6231C11.0079 24.7168 10.9142 24.787 10.844 24.787L5.7489 24.7635ZM30.008 20.0428C28.5353 20.4168 27.5304 20.6972 26.0816 21.0708C25.7307 21.1645 25.7076 21.1877 25.4037 20.8371C25.0532 20.44 24.796 20.1828 24.3055 19.9491C22.8328 19.2249 21.4072 19.435 20.0753 20.3C18.4862 21.328 17.6683 22.847 17.6914 24.74C17.7146 26.6098 19.0002 28.1523 20.8465 28.4095C22.4356 28.6196 23.7679 28.0586 24.8195 26.867C25.0297 26.6098 25.2167 26.3295 25.4504 26.0021H20.9398C20.4493 26.0021 20.3325 25.6982 20.496 25.301C20.7999 24.5765 21.3605 23.3614 21.6875 22.7536C21.7581 22.6133 21.9216 22.3796 22.2721 22.3796H30.7788C30.7325 23.0109 30.7325 23.6417 30.6388 24.273C30.3816 25.9554 29.7508 27.4979 28.7223 28.8533C27.0395 31.0737 24.843 32.4523 22.0616 32.8263C19.7714 33.1302 17.6448 32.686 15.7753 31.2839C14.0458 29.9751 13.0644 28.2456 12.8072 26.0958C12.5033 23.5484 13.2511 21.2578 14.7935 19.248C16.4528 17.0747 18.6497 15.6957 21.3374 15.2048C23.5343 14.8077 25.6374 15.0649 27.5304 16.3501C28.769 17.168 29.6571 18.2898 30.2413 19.6452C30.3816 19.8557 30.2887 19.973 30.008 20.0428Z" fill="#22D3EE"/>
<path d="M37.7434 32.9667C35.6168 32.9196 33.6767 32.3123 32.0409 30.9098C30.662 29.7183 29.7974 28.1989 29.5171 26.3993C29.0964 23.7586 29.8206 21.4213 31.4101 19.3417C33.116 17.0978 35.1725 15.9294 37.954 15.4385C40.3375 15.0182 42.5814 15.2519 44.6143 16.6305C46.4607 17.8926 47.6055 19.5985 47.9094 21.8421C48.3066 24.9972 47.3954 27.5681 45.2217 29.7649C43.6792 31.3305 41.7862 32.3123 39.6129 32.7561C38.982 32.873 38.3508 32.8965 37.7434 32.9667ZM43.3055 23.5249C43.2824 23.221 43.2824 22.9873 43.2354 22.7537C42.815 20.44 40.688 19.1312 38.468 19.6456C36.2943 20.1361 34.8922 21.5151 34.3782 23.7119C33.9575 25.5347 34.8455 27.381 36.528 28.1287C37.8136 28.6898 39.0989 28.6196 40.3375 27.9888C42.1838 27.0305 43.1887 25.5347 43.3055 23.5249Z" fill="#22D3EE"/>
</svg>
