<svg width="48" height="48" viewBox="0 0 48 48" fill="none" xmlns="http://www.w3.org/2000/svg">
<path d="M33.9659 11.2622V11.1034C32.8492 10.9247 32.338 10.4136 32.1593 9.30182H32.0005C31.8218 10.4136 31.3106 10.9198 30.1989 11.1034V11.2622C31.3106 11.4459 31.8169 11.9521 32.0005 13.0688H32.1593C32.343 11.9521 32.8492 11.4459 33.9659 11.2622Z" fill="#C4C4CC"/>
<path d="M43.5 17.6348V17.8036C40.0556 18.1163 38.7354 19.4414 38.4228 22.8808H38.254C37.9413 19.4414 36.6212 18.1163 33.1768 17.8036V17.6348C36.6212 17.3222 37.9413 16.002 38.259 12.5576H38.4178C38.7354 16.002 40.0556 17.3222 43.5 17.6348Z" fill="#C4C4CC"/>
<path fill-rule="evenodd" clip-rule="evenodd" d="M20.0792 13.7786L41.0085 38.6933H35.4052L29.6827 31.8839H19.692C19.4985 31.8839 19.3446 31.9435 19.2305 32.0626C19.1114 32.1817 19.0518 32.3356 19.0518 32.5192V38.6933H14.8133V14.7017C14.8133 13.9076 15.4536 13.2674 16.2477 13.2674H18.9823C19.4042 13.2674 19.8062 13.456 20.0792 13.7786ZM19.0518 31.5514L22.1339 28.2361H26.6156L19.0518 19.233V31.5514Z" fill="#C4C4CC"/>
<path d="M4.5 13.2722V38.6982H8.70374V13.2722H4.5Z" fill="#C4C4CC"/>
</svg>
