<svg width="48" height="48" viewBox="0 0 48 48" fill="none" xmlns="http://www.w3.org/2000/svg">
<path d="M24 41.2186C34.7701 41.2186 43.5 34.1688 43.5 25.4748C43.5 20.0841 40.1577 15.3223 35.0195 12.4982C32.9287 11.3363 31.286 10.2933 29.9188 9.42636C27.344 7.79023 25.7551 6.78149 24 6.78149C22.2172 6.78149 20.2079 8.05748 17.5549 9.74088C16.0602 10.71 14.5341 11.6296 12.9789 12.4982C7.84235 15.3223 4.5 20.0841 4.5 25.4748C4.5 34.1688 13.2299 41.2186 24 41.2186ZM21.7234 12.1625C22.2656 10.9286 22.5415 9.59425 22.5333 8.24652C22.5333 8.01186 22.8609 7.94341 22.9065 8.20089C23.9756 12.7231 21.4399 14.9638 19.5642 15.7134C19.3621 15.7916 19.2399 15.5179 19.3963 15.3745C20.3924 14.4822 21.1859 13.387 21.7234 12.1625ZM25.0674 11.9963C24.9132 10.6711 24.48 9.39372 23.7963 8.24815V8.22371C23.6855 8.02326 23.9364 7.79512 24.0978 7.94341C27.2853 11.3738 26.2212 14.5515 25.0006 16.1518C24.867 16.318 24.6274 16.1469 24.6942 15.9465C25.0949 14.6706 25.2221 13.3246 25.0674 11.9963ZM27.9535 11.0853C27.2997 9.93151 26.4068 8.93082 25.3347 8.15037V8.12756C25.1521 7.98904 25.2955 7.68104 25.5188 7.7723C29.7363 9.53881 30.0263 12.9398 29.5146 14.9345C29.5043 14.9816 29.4763 15.023 29.4364 15.0502C29.3977 15.0775 29.3497 15.0884 29.303 15.0805C29.2563 15.0725 29.2146 15.0464 29.1871 15.0078C29.1586 14.9688 29.1458 14.9205 29.1512 14.8725C29.0216 13.5402 28.6136 12.2499 27.9535 11.0853ZM19.688 11.9963C18.6842 12.8828 17.6038 13.2315 16.3343 13.621C16.1452 13.621 16.0181 13.4939 16.0817 13.3277C18.9286 11.8496 19.9423 10.6469 20.9542 8.812C20.9542 8.812 21.2068 8.62133 21.2606 8.95051C21.2606 9.44429 20.6935 11.1098 19.688 11.9963ZM27.7237 30.2561C27.4928 31.2364 26.9598 32.1194 26.2 32.7804C25.6374 33.3425 24.901 33.6975 24.1108 33.7875C23.2973 33.7113 22.5353 33.3554 21.9548 32.7804C21.2023 32.1166 20.6763 31.2339 20.4507 30.2561C20.4434 30.1982 20.4489 30.1394 20.4669 30.0839C20.485 30.0284 20.515 29.9776 20.555 29.9351C20.595 29.8935 20.644 29.8618 20.6983 29.8423C20.7526 29.8228 20.8106 29.8161 20.8679 29.8227H27.3114C27.3683 29.8163 27.4259 29.8233 27.4797 29.8431C27.5334 29.8629 27.5818 29.8949 27.621 29.9367C27.6608 29.979 27.6907 30.0295 27.7085 30.0848C27.7263 30.1401 27.7314 30.1986 27.7237 30.2561ZM18.8537 26.7199C18.2652 27.1223 17.5532 27.3031 16.8441 27.2303C16.1349 27.1575 15.4745 26.8358 14.9801 26.3222C14.4766 25.8 14.165 25.1225 14.0961 24.4004C14.0271 23.6783 14.2049 22.9541 14.6004 22.346C14.9377 21.8278 15.4184 21.4252 15.979 21.1873C16.5387 20.9489 17.1576 20.8864 17.7537 21.0081C18.3485 21.1303 18.896 21.4318 19.3246 21.8718C19.7548 22.3117 20.0466 22.8756 20.1639 23.4851C20.2823 24.0966 20.2212 24.7294 19.9879 25.307C19.7569 25.8787 19.3624 26.3713 18.8537 26.7199ZM32.6582 26.728C32.0688 27.1278 31.3568 27.3059 30.6486 27.2307C29.9404 27.1555 29.2818 26.832 28.7894 26.3173C28.2161 25.721 27.897 24.9251 27.8997 24.0978C27.8997 23.4737 28.0789 22.8626 28.4195 22.3443C28.7569 21.8261 29.2376 21.422 29.7998 21.1857C30.3603 20.9481 30.9799 20.8867 31.5761 21.0097C32.1725 21.1335 32.7201 21.435 33.1487 21.8783C33.5773 22.3215 33.8657 22.8837 33.983 23.4965C34.0989 24.1088 34.0349 24.7416 33.7989 25.3184C33.566 25.8905 33.1691 26.3809 32.6582 26.728Z" fill="#C4C4CC"/>
</svg>
