<svg width="48" height="48" viewBox="0 0 48 48" fill="none" xmlns="http://www.w3.org/2000/svg">
<path d="M46 24C46 20.8174 44.7357 17.7652 42.4853 15.5147C40.2348 13.2643 37.1826 12 34 12C28.8 12 24.5 16.1 22.1 23.4C20.3 28.9 17.3 32 14 32C11.8783 32 9.84344 31.1572 8.34315 29.6569C6.84285 28.1566 6 26.1218 6 24C6 21.8783 6.84285 19.8435 8.34315 18.3432C9.84344 16.8429 11.8783 16 14 16H15.2L13.6 17.6C13.3826 17.7925 13.2122 18.0321 13.1019 18.3007C12.9915 18.5692 12.9442 18.8594 12.9635 19.1491C12.9828 19.4388 13.0683 19.7202 13.2133 19.9717C13.3583 20.2232 13.559 20.4382 13.8 20.6C14.2013 20.8905 14.6924 21.0298 15.1865 20.9932C15.6806 20.9566 16.1459 20.7465 16.5 20.4L21.4 15.4C21.594 15.222 21.7489 15.0057 21.8548 14.7647C21.9608 14.5237 22.0155 14.2633 22.0155 14C22.0155 13.7368 21.9608 13.4764 21.8548 13.2354C21.7489 12.9944 21.594 12.778 21.4 12.6L16.5 7.60003C16.1459 7.25355 15.6806 7.04344 15.1865 7.00684C14.6924 6.97024 14.2013 7.10951 13.8 7.40003C13.559 7.56189 13.3583 7.77683 13.2133 8.02834C13.0683 8.27986 12.9828 8.56125 12.9635 8.85093C12.9442 9.1406 12.9915 9.43085 13.1019 9.69939C13.2122 9.96792 13.3826 10.2076 13.6 10.4L15.2 12H14C10.8174 12 7.76516 13.2643 5.51472 15.5147C3.26428 17.7652 2 20.8174 2 24C2 27.1826 3.26428 30.2349 5.51472 32.4853C7.76516 34.7357 10.8174 36 14 36C19.2 36 23.5 31.9 25.9 24.6C27.7 19.1 30.7 16 34 16C36.1217 16 38.1566 16.8429 39.6569 18.3432C41.1571 19.8435 42 21.8783 42 24C42 26.1218 41.1571 28.1566 39.6569 29.6569C38.1566 31.1572 36.1217 32 34 32H32.8L34.4 30.4C34.6174 30.2076 34.7878 29.9679 34.8981 29.6994C35.0085 29.4309 35.0558 29.1406 35.0365 28.8509C35.0172 28.5613 34.9317 28.2799 34.7867 28.0283C34.6417 27.7768 34.441 27.5619 34.2 27.4C33.7987 27.1095 33.3076 26.9702 32.8135 27.0068C32.3194 27.0434 31.8541 27.2535 31.5 27.6L26.6 32.6C26.406 32.778 26.2511 32.9944 26.1452 33.2354C26.0392 33.4764 25.9845 33.7368 25.9845 34C25.9845 34.2633 26.0392 34.5237 26.1452 34.7647C26.2511 35.0057 26.406 35.222 26.6 35.4L31.5 40.4C31.8541 40.7465 32.3194 40.9566 32.8135 40.9932C33.3076 41.0298 33.7987 40.8905 34.2 40.6C34.441 40.4382 34.6417 40.2232 34.7867 39.9717C34.9317 39.7202 35.0172 39.4388 35.0365 39.1491C35.0558 38.8594 35.0085 38.5692 34.8981 38.3007C34.7878 38.0321 34.6174 37.7924 34.4 37.6L32.8 36H34C37.1826 36 40.2348 34.7357 42.4853 32.4853C44.7357 30.2349 46 27.1826 46 24Z" fill="#84CC16"/>
</svg>
