<?xml version="1.0" encoding="utf-8"?>
<svg xmlns="http://www.w3.org/2000/svg" width="72" height="67" viewBox="0 0 72 67" fill="none">
<g filter="url(#filter0_f_1219_4374)">
<path d="M57 19.3684C53.4445 14.1898 46.4919 11.5636 36.3389 11.5636H36.3224C26.1848 11.5664 19.2493 14.1937 15.7092 19.3724C12.7454 23.7072 12.3657 29.2339 12.3657 33.5636C12.3657 37.8933 12.7454 43.4194 15.7092 47.7542C19.2493 52.9323 26.1848 55.5596 36.323 55.5636H36.3429C46.4953 55.5636 53.4451 52.938 57.0006 47.7593C59.9826 43.4149 60.3657 37.8911 60.3657 33.5642C60.3657 29.2373 59.9838 23.7135 57.0012 19.3696H57.0006L57 19.3684Z" fill="url(#paint0_linear_1219_4374)"/>
</g>
<path d="M56.3387 19.7861C52.8972 14.7735 46.1675 12.2312 36.3401 12.2312H36.3235C26.5109 12.234 19.7977 14.7769 16.3716 19.7895C13.503 23.9855 13.1353 29.3348 13.1353 33.5256C13.1353 37.7165 13.503 43.0652 16.3716 47.2612C19.7983 52.2732 26.5115 54.8167 36.3241 54.8201H36.3429C46.1698 54.8201 52.8967 52.2783 56.3382 47.2657C59.225 43.0607 59.5956 37.7137 59.5956 33.5256C59.5956 29.3376 59.2256 23.9912 56.3387 19.7861Z" fill="#09090A"/>
<g opacity="0.9">
<rect x="35" y="29.6062" width="15" height="15" rx="7.5" fill="#42A5F5"/>
<path d="M39.84 33.6062L39.593 34.9051H44.7572L44.59 35.7451H39.4296L39.1787 37.0401H44.343L44.0542 38.5218L41.9718 39.2256L40.1668 38.5218L40.2922 37.884H39.0229L38.7227 39.4395L41.7058 40.6062L45.1448 39.4395L45.6009 37.0945L45.6921 36.624L46.2773 33.6062H39.84Z" fill="white"/>
</g>
<g opacity="0.9">
<rect x="23" y="29.6062" width="15" height="15" rx="7.5" fill="#E44D26"/>
<path fill-rule="evenodd" clip-rule="evenodd" d="M28.8679 36.1082H30.4994H30.5037H33.0397H33.3727L33.3426 36.4401L33.0522 39.6945L33.0336 39.9033L30.5037 40.6047L30.4994 40.6056L30.498 40.6062L27.9658 39.9033L27.7926 37.9624H29.0336L29.1216 38.9482L30.4982 39.32L30.4994 39.3195L30.5037 39.3185L31.8781 38.9475L32.0215 37.3443H30.5037H30.4994H27.7374L27.4337 33.9378L27.404 33.6062H30.4994H30.5037H33.596L33.5665 33.9378L33.51 34.5645L33.4853 34.8422H30.5037H30.4994H28.7549L28.8679 36.1082Z" fill="white"/>
</g>
<g opacity="0.9">
<rect x="29" y="19.6062" width="15" height="15" rx="7.5" fill="#E5D130"/>
<path d="M32.4934 28.8773L33.4236 28.3235C33.603 28.6366 33.7664 28.9014 34.158 28.9014C34.5332 28.9014 34.7699 28.7577 34.7699 28.195V24.3739H35.9123V28.2108C35.9123 29.3747 35.2188 29.9046 34.2071 29.9046C33.8494 29.9236 33.4943 29.8356 33.1884 29.6522C32.8826 29.4688 32.6404 29.1985 32.4937 28.877L32.4934 28.8773ZM36.533 28.7565L37.4632 28.2266C37.5666 28.4331 37.7272 28.6066 37.9263 28.7273C38.1255 28.848 38.3553 28.9109 38.5892 28.9089C39.0626 28.9089 39.3642 28.676 39.3642 28.3549C39.3642 27.9696 39.0542 27.833 38.5319 27.6073L38.2473 27.4883C37.4232 27.1433 36.8764 26.7097 36.8764 25.7945C36.8764 24.9515 37.5293 24.3095 38.5492 24.3095C38.8796 24.286 39.2098 24.3586 39.4986 24.5185C39.7873 24.6784 40.0218 24.9184 40.1728 25.2086L39.2833 25.7707C39.2249 25.6266 39.1234 25.5035 38.9922 25.4174C38.8611 25.3314 38.7065 25.2867 38.5489 25.2891C38.4802 25.2822 38.4108 25.2896 38.3451 25.3106C38.2794 25.3316 38.219 25.3659 38.1675 25.4112C38.1161 25.4565 38.0748 25.5119 38.0463 25.5738C38.0178 25.6357 38.0028 25.7027 38.0021 25.7707C38.0021 26.1079 38.2143 26.2442 38.7035 26.4529L38.989 26.5734C39.9601 26.9828 40.5066 27.4003 40.5066 28.3393C40.5066 29.3508 39.6988 29.9049 38.6137 29.9049C37.5529 29.9049 36.8676 29.4072 36.533 28.7568" fill="#09090A"/>
</g>
<defs>
<filter id="filter0_f_1219_4374" x="0.964297" y="0.162173" width="70.8029" height="66.8029" filterUnits="userSpaceOnUse" color-interpolation-filters="sRGB">
<feFlood flood-opacity="0" result="BackgroundImageFix"/>
<feBlend mode="normal" in="SourceGraphic" in2="BackgroundImageFix" result="shape"/>
<feGaussianBlur stdDeviation="5.70071" result="effect1_foregroundBlur_1219_4374"/>
</filter>
<linearGradient id="paint0_linear_1219_4374" x1="12.3652" y1="33.563" x2="60.3652" y2="33.563" gradientUnits="userSpaceOnUse">
<stop stop-color="#CE4623"/>
<stop offset="0.46875" stop-color="#CFBD2C"/>
<stop offset="1" stop-color="#3C95DD" stop-opacity="0.25"/>
</linearGradient>
</defs>
</svg>