<?xml version="1.0" encoding="utf-8"?>
<svg xmlns="http://www.w3.org/2000/svg" width="16" height="17" viewBox="0 0 16 17" fill="none">
<g id="bar-chart-outline 1">
<path id="Vector" d="M4.13049 6.8501H2.88049C2.53532 6.8501 2.25549 7.12992 2.25549 7.4751V12.2251C2.25549 12.5703 2.53532 12.8501 2.88049 12.8501H4.13049C4.47567 12.8501 4.75549 12.5703 4.75549 12.2251V7.4751C4.75549 7.12992 4.47567 6.8501 4.13049 6.8501Z" fill="#29E0A9" stroke="#29E0A9" stroke-linecap="round" stroke-linejoin="round"/>
<path id="Vector_2" d="M8.63049 5.3501H7.38049C7.03532 5.3501 6.75549 5.62992 6.75549 5.9751V12.2251C6.75549 12.5703 7.03532 12.8501 7.38049 12.8501H8.63049C8.97567 12.8501 9.25549 12.5703 9.25549 12.2251V5.9751C9.25549 5.62992 8.97567 5.3501 8.63049 5.3501Z" fill="#505059" stroke="#505059" stroke-linecap="round" stroke-linejoin="round"/>
<path id="Vector_3" d="M13.1195 3.3501H11.8695C11.5243 3.3501 11.2445 3.62992 11.2445 3.9751V12.2251C11.2445 12.5703 11.5243 12.8501 11.8695 12.8501H13.1195C13.4647 12.8501 13.7445 12.5703 13.7445 12.2251V3.9751C13.7445 3.62992 13.4647 3.3501 13.1195 3.3501Z" fill="#505059" stroke="#505059" stroke-linecap="round" stroke-linejoin="round"/>
</g>
</svg>