<svg width="55" height="29" viewBox="0 0 55 23" fill="none" xmlns="http://www.w3.org/2000/svg">
<path d="M0.872 0.863999V18H12.224V16.08H3.152V0.863999H0.872ZM15.3599 11.808C15.3599 11.056 15.4559 10.392 15.6479 9.816C15.8559 9.224 16.1359 8.728 16.4879 8.328C16.8399 7.928 17.2479 7.624 17.7119 7.416C18.1919 7.208 18.6959 7.104 19.2239 7.104C19.7519 7.104 20.2479 7.208 20.7119 7.416C21.1919 7.624 21.6079 7.928 21.9599 8.328C22.3119 8.728 22.5839 9.224 22.7759 9.816C22.9839 10.392 23.0879 11.056 23.0879 11.808C23.0879 12.56 22.9839 13.232 22.7759 13.824C22.5839 14.4 22.3119 14.888 21.9599 15.288C21.6079 15.672 21.1919 15.968 20.7119 16.176C20.2479 16.384 19.7519 16.488 19.2239 16.488C18.6959 16.488 18.1919 16.384 17.7119 16.176C17.2479 15.968 16.8399 15.672 16.4879 15.288C16.1359 14.888 15.8559 14.4 15.6479 13.824C15.4559 13.232 15.3599 12.56 15.3599 11.808ZM13.1999 11.808C13.1999 12.72 13.3279 13.568 13.5839 14.352C13.8399 15.136 14.2239 15.824 14.7359 16.416C15.2479 16.992 15.8799 17.448 16.6319 17.784C17.3839 18.104 18.2479 18.264 19.2239 18.264C20.2159 18.264 21.0799 18.104 21.8159 17.784C22.5679 17.448 23.1999 16.992 23.7119 16.416C24.2239 15.824 24.6079 15.136 24.8639 14.352C25.1199 13.568 25.2479 12.72 25.2479 11.808C25.2479 10.896 25.1199 10.048 24.8639 9.264C24.6079 8.464 24.2239 7.776 23.7119 7.2C23.1999 6.608 22.5679 6.144 21.8159 5.808C21.0799 5.472 20.2159 5.304 19.2239 5.304C18.2479 5.304 17.3839 5.472 16.6319 5.808C15.8799 6.144 15.2479 6.608 14.7359 7.2C14.2239 7.776 13.8399 8.464 13.5839 9.264C13.3279 10.048 13.1999 10.896 13.1999 11.808ZM38.3572 16.944V5.592H36.4372V7.368H36.4132C36.0452 6.68 35.5332 6.168 34.8772 5.832C34.2212 5.48 33.5012 5.304 32.7172 5.304C31.6452 5.304 30.7412 5.512 30.0052 5.928C29.2692 6.328 28.6772 6.848 28.2292 7.488C27.7812 8.112 27.4612 8.816 27.2692 9.6C27.0772 10.368 26.9812 11.12 26.9812 11.856C26.9812 12.704 27.0932 13.512 27.3172 14.28C27.5572 15.032 27.9092 15.696 28.3732 16.272C28.8372 16.832 29.4132 17.28 30.1012 17.616C30.7892 17.952 31.5972 18.12 32.5252 18.12C33.3252 18.12 34.0772 17.944 34.7812 17.592C35.5012 17.224 36.0372 16.656 36.3892 15.888H36.4372V16.704C36.4372 17.392 36.3652 18.024 36.2212 18.6C36.0932 19.176 35.8772 19.664 35.5732 20.064C35.2692 20.48 34.8852 20.8 34.4212 21.024C33.9572 21.264 33.3892 21.384 32.7172 21.384C32.3812 21.384 32.0292 21.344 31.6612 21.264C31.2932 21.2 30.9492 21.088 30.6292 20.928C30.3252 20.768 30.0612 20.56 29.8372 20.304C29.6292 20.048 29.5172 19.736 29.5012 19.368H27.4612C27.4932 20.04 27.6692 20.608 27.9892 21.072C28.3092 21.536 28.7092 21.912 29.1892 22.2C29.6852 22.488 30.2292 22.696 30.8212 22.824C31.4292 22.952 32.0212 23.016 32.5972 23.016C34.5812 23.016 36.0372 22.512 36.9652 21.504C37.8932 20.496 38.3572 18.976 38.3572 16.944ZM32.6452 16.344C31.9732 16.344 31.4132 16.208 30.9652 15.936C30.5172 15.648 30.1572 15.28 29.8852 14.832C29.6132 14.368 29.4212 13.856 29.3092 13.296C29.1972 12.736 29.1412 12.176 29.1412 11.616C29.1412 11.024 29.2052 10.456 29.3332 9.912C29.4772 9.368 29.6932 8.888 29.9812 8.472C30.2852 8.056 30.6692 7.728 31.1332 7.488C31.5972 7.232 32.1572 7.104 32.8132 7.104C33.4532 7.104 33.9972 7.232 34.4452 7.488C34.8932 7.744 35.2532 8.088 35.5252 8.52C35.8132 8.936 36.0212 9.408 36.1492 9.936C36.2772 10.464 36.3412 11 36.3412 11.544C36.3412 12.12 36.2692 12.696 36.1252 13.272C35.9972 13.848 35.7892 14.368 35.5012 14.832C35.2132 15.28 34.8292 15.648 34.3492 15.936C33.8852 16.208 33.3172 16.344 32.6452 16.344ZM42.9224 11.808C42.9224 11.056 43.0184 10.392 43.2104 9.816C43.4184 9.224 43.6984 8.728 44.0504 8.328C44.4024 7.928 44.8104 7.624 45.2744 7.416C45.7544 7.208 46.2584 7.104 46.7864 7.104C47.3144 7.104 47.8104 7.208 48.2744 7.416C48.7544 7.624 49.1704 7.928 49.5224 8.328C49.8744 8.728 50.1464 9.224 50.3384 9.816C50.5464 10.392 50.6504 11.056 50.6504 11.808C50.6504 12.56 50.5464 13.232 50.3384 13.824C50.1464 14.4 49.8744 14.888 49.5224 15.288C49.1704 15.672 48.7544 15.968 48.2744 16.176C47.8104 16.384 47.3144 16.488 46.7864 16.488C46.2584 16.488 45.7544 16.384 45.2744 16.176C44.8104 15.968 44.4024 15.672 44.0504 15.288C43.6984 14.888 43.4184 14.4 43.2104 13.824C43.0184 13.232 42.9224 12.56 42.9224 11.808ZM40.7624 11.808C40.7624 12.72 40.8904 13.568 41.1464 14.352C41.4024 15.136 41.7864 15.824 42.2984 16.416C42.8104 16.992 43.4424 17.448 44.1944 17.784C44.9464 18.104 45.8104 18.264 46.7864 18.264C47.7784 18.264 48.6424 18.104 49.3784 17.784C50.1304 17.448 50.7624 16.992 51.2744 16.416C51.7864 15.824 52.1704 15.136 52.4264 14.352C52.6824 13.568 52.8104 12.72 52.8104 11.808C52.8104 10.896 52.6824 10.048 52.4264 9.264C52.1704 8.464 51.7864 7.776 51.2744 7.2C50.7624 6.608 50.1304 6.144 49.3784 5.808C48.6424 5.472 47.7784 5.304 46.7864 5.304C45.8104 5.304 44.9464 5.472 44.1944 5.808C43.4424 6.144 42.8104 6.608 42.2984 7.2C41.7864 7.776 41.4024 8.464 41.1464 9.264C40.8904 10.048 40.7624 10.896 40.7624 11.808Z" fill="white"/>
</svg>
